<svg xmlns="http://www.w3.org/2000/svg" viewBox="0 0 374.9 130.39" height="48px">
	<defs>
		<style>
			.cls-1 {
			fill: #2e6ddf;
			}
			
			.cls-2 {
			fill: #fff;
			}
			
			.cls-3 {
			fill: #333;
			}
		</style>
	</defs>
	<g id="TEEBB">
		<rect class="cls-1" width="130.39" height="130.39" rx="42.52">
		</rect>
		<path class="cls-2" d="M67,33c-.61,1-1,1.8-1.58,2.54-.77,1.06-1.67,2-2.43,3.12-6.17,8.76-11.19,18.1-14,28.51a22,22,0,0,0-.77,6.33c.24,7.63-3.45,13.23-9,17.77A85.81,85.81,0,0,1,28.82,99c-.44.25-.43.64-.52,1a33.23,33.23,0,0,0-1,11.79c.09.72.15,1.51-.71,1.8a1.68,1.68,0,0,1-1.84-.8,7,7,0,0,1-1.07-3.91c-.47-4.9.86-9.56,1.94-14.27a116,116,0,0,1,5.67-16.53A7.09,7.09,0,0,0,31.65,75a8.56,8.56,0,0,1,.48-3.91c.64.83.4,1.77.64,2.66.67-.24.75-.84,1-1.3a150.47,150.47,0,0,1,16-27,44.64,44.64,0,0,1,7-7.81c.25-.21.44-.58,1-.38C56.34,41.12,54,44.41,51.9,47.82c-6,9.81-11.87,19.66-16.41,30.25a124.63,124.63,0,0,0-5.38,15,1.59,1.59,0,0,0-.1,1.21c.94-.71,1.82-1.42,2.74-2.06,1.9-1.35,3.83-2.68,5.75-4A16.58,16.58,0,0,0,45.74,75a56.46,56.46,0,0,1,3.67-16.73,50.24,50.24,0,0,1,6.74-12.55c3.06-4,5.24-8.61,9.15-11.92A2.32,2.32,0,0,1,67,33Z">
		</path>
		<path class="cls-2" d="M81.42,16.78a17.26,17.26,0,0,1-4.31,3.3,135.14,135.14,0,0,0-38.35,35.5A69.48,69.48,0,0,0,26.39,84.46c-.32,1.8-.51,3.62-.76,5.42-.09.68-.18,1.44-1.11,1.29s-.89-.88-.82-1.57a82,82,0,0,1,2.66-12.8C29.26,65.56,35.21,56,42.77,47.39a157.22,157.22,0,0,1,29.12-26.3,30.91,30.91,0,0,1,6.9-3.85A4.55,4.55,0,0,1,81.42,16.78Z">
		</path>
		<path class="cls-2" d="M42.38,78.64a4.11,4.11,0,0,1-1.48,2.44c-2,1.76-4.1,3.44-6.18,5.14-.4.32-.93.61-1.37.21a1,1,0,0,1,0-1.4C35.7,82.14,38.41,79.73,42.38,78.64Z">
		</path>
		<path class="cls-2" d="M45.06,69a1.6,1.6,0,0,1-.26.5,11.23,11.23,0,0,1-3.66,2.91,1.1,1.1,0,0,1-.86.08c-.41-.24,0-.65,0-.94.27-1.06,3-3.13,4.07-3.15C44.9,68.37,45.09,68.53,45.06,69Z">
		</path>
		<path class="cls-2" d="M106.77,107.21c-4,2.6-8,3-11.75,4.15a11.84,11.84,0,0,1-7,.19c-6.66-2-13.39-1.55-20.14-.7a18.91,18.91,0,0,1-12.17-2.21c-4.45-2.54-9-.94-13.44.17-3.11.78-5.83,2.45-8.72,3.71-1.28.55-2.72,1-3.56-.41-1-1.69.79-2.12,1.85-2.73,6.3-3.58,12.91-6.08,20.44-5.08a8.9,8.9,0,0,1,3.49,1.07c4.22,2.63,8.83,2.29,13.45,1.78,5.34-.59,10.61-1,15.87.65s10.59.15,15.84-.72A12.64,12.64,0,0,1,106.77,107.21Z">
		</path>
		<path class="cls-3" d="M174.2,89.57V83.81q.09-3.69,3.24-3.69t3.15,4.14q0,9.81-2.5,13.68-3.41,5.22-11.18,5.22-7.14,0-10.18-4.59-2.25-3.33-2.24-11.34V65.63c0-1.26-.58-1.89-1.75-1.89H149.8a3.35,3.35,0,0,1-2.44-1,3.06,3.06,0,0,1-1-2.29,3.18,3.18,0,0,1,1-2.25,2.86,2.86,0,0,1,2.11-1H153q1.53,0,1.53-1.71V46.28q0-3.42,3.51-3.42,3.24,0,3.24,3.42v9.63q0,1.35,1.62,1.35h9.81q3.42,0,3.42,3.15,0,3.33-3.69,3.33h-9.9q-1.26,0-1.26,1.89V87.77q0,9.45,6.3,9.45T174.2,89.57Z">
		</path>
		<path class="cls-3" d="M226,75.53c0,2.28-.15,3.67-.45,4.18s-1.17.77-2.61.77H194.36a2.52,2.52,0,0,0-1.53.31,1.32,1.32,0,0,0-.36,1,16.19,16.19,0,0,0,4.05,11.25,13.41,13.41,0,0,0,17.32,2.34,9.88,9.88,0,0,0,4.28-5.49l.81-2.61a2.79,2.79,0,0,1,3-2.16q3.33,0,3.33,3.42,0,5.85-5.94,10.39a21.64,21.64,0,0,1-13.5,4.55q-9.45,0-15-6.35t-5.58-17q0-11,5.94-17.82a19.53,19.53,0,0,1,15.48-6.84,18.59,18.59,0,0,1,14,5.67A19.85,19.85,0,0,1,226,75.53Zm-32.67-2.34q0,1.26,2,1.26h21.51q1.89,0,1.89-1.26a11.19,11.19,0,0,0-3.6-8.28,11.73,11.73,0,0,0-8.46-3.51A13.56,13.56,0,0,0,197.51,65Q193.37,68.69,193.37,73.19Z">
		</path>
		<path class="cls-3" d="M273.56,75.53c0,2.28-.15,3.67-.45,4.18s-1.17.77-2.61.77H241.88a2.52,2.52,0,0,0-1.53.31,1.32,1.32,0,0,0-.36,1,16.19,16.19,0,0,0,4,11.25,13.41,13.41,0,0,0,17.32,2.34,9.88,9.88,0,0,0,4.28-5.49l.81-2.61a2.79,2.79,0,0,1,3-2.16q3.33,0,3.33,3.42,0,5.85-5.94,10.39a21.64,21.64,0,0,1-13.5,4.55q-9.45,0-15-6.35t-5.58-17q0-11,5.94-17.82a19.53,19.53,0,0,1,15.48-6.84,18.59,18.59,0,0,1,13.95,5.67A19.85,19.85,0,0,1,273.56,75.53Zm-32.67-2.34q0,1.26,2,1.26h21.51q1.89,0,1.89-1.26a11.19,11.19,0,0,0-3.6-8.28,11.73,11.73,0,0,0-8.46-3.51A13.56,13.56,0,0,0,245,65Q240.89,68.69,240.89,73.19Z">
		</path>
		<path class="cls-3" d="M292,44.64q-.79,7.44-.9,17.66A18.09,18.09,0,0,1,297,57a16.29,16.29,0,0,1,7.49-1.53q9,0,14.34,6.3t5.33,16.74q0,11.43-5.63,18.22t-15.16,6.8q-9.27,0-13.41-6.93.36,2.61.36,2.88,0,3.24-3.15,3.24T284,98.21v-6.3l.45-6.93V51.86a12.49,12.49,0,0,0-.67-4.5,2.09,2.09,0,0,0-2-1.17q-.27,0-2.34.36a9.76,9.76,0,0,1-1.71.18q-3.06,0-3.06-2.88t3.6-3A14.92,14.92,0,0,1,280,41l2.16.27a19.69,19.69,0,0,0,2.34.18,20.17,20.17,0,0,0,2.79-.27,20,20,0,0,1,2.7-.27c1.32,0,2,.83,2,2.51Zm-.27,26a40.07,40.07,0,0,0-.63,8.1q0,8.91,1.45,12.24,2.81,6.57,10.69,6.57a11.77,11.77,0,0,0,9.93-4.91q3.66-4.9,3.67-13.18,0-8.46-3.49-13.28a11.17,11.17,0,0,0-9.56-4.81,12.33,12.33,0,0,0-7.71,2.65A11.46,11.46,0,0,0,291.74,70.67Z">
		</path>
		<path class="cls-3" d="M342.77,44.64q-.79,7.44-.9,17.66A18.09,18.09,0,0,1,347.74,57a16.29,16.29,0,0,1,7.49-1.53q9,0,14.34,6.3T374.9,78.5q0,11.43-5.63,18.22t-15.16,6.8q-9.27,0-13.41-6.93.36,2.61.36,2.88,0,3.24-3.15,3.24t-3.15-4.5v-6.3l.45-6.93V51.86a12.21,12.21,0,0,0-.68-4.5,2.07,2.07,0,0,0-2-1.17q-.27,0-2.34.36a9.76,9.76,0,0,1-1.71.18q-3.06,0-3.06-2.88t3.6-3a14.92,14.92,0,0,1,1.8.09l2.16.27a19.69,19.69,0,0,0,2.34.18,20.17,20.17,0,0,0,2.79-.27,20,20,0,0,1,2.7-.27c1.32,0,2,.83,2,2.51Zm-.27,26a40.07,40.07,0,0,0-.63,8.1q0,8.91,1.45,12.24,2.81,6.57,10.69,6.57a11.77,11.77,0,0,0,9.93-4.91q3.66-4.9,3.67-13.18,0-8.46-3.49-13.28a11.17,11.17,0,0,0-9.56-4.81,12.33,12.33,0,0,0-7.71,2.65A11.46,11.46,0,0,0,342.5,70.67Z">
		</path>
	</g>
</svg>
